HIERARCHY
ROOT Hips
{
	OFFSET -183.429703 89.960052 22.660780
	CHANNELS 6 Xposition Yposition Zposition Zrotation Yrotation Xrotation 
	JOINT RightUpLeg
	{
		OFFSET 0.103454 1.857828 10.548502
		CHANNELS 3 Xrotation Yrotation Zrotation
		JOINT RightLeg
		{
			OFFSET 43.500000 -0.000023 -0.000008
			CHANNELS 3 Xrotation Yrotation Zrotation
			JOINT RightFoot
			{
				OFFSET 42.372192 0.000008 0.000008
				CHANNELS 3 Xrotation Yrotation Zrotation
				JOINT RightToe
				{
					OFFSET 17.299997 -0.000001 0.000000
					CHANNELS 3 Xrotation Yrotation Zrotation
					End Site
					{
						OFFSET 0.000000 0.000000 0.000000
					}
				}
			}
		}
	}
	JOINT LeftUpLeg
	{
		OFFSET 0.103459 1.857828 -10.548505
		CHANNELS 3 Xrotation Yrotation Zrotation
		JOINT LeftLeg
		{
			OFFSET 43.500046 -0.000027 0.000015
			CHANNELS 3 Xrotation Yrotation Zrotation
			JOINT LeftFoot
			{
				OFFSET 42.372261 -0.000008 0.000019
				CHANNELS 3 Xrotation Yrotation Zrotation
				JOINT LeftToe
				{
					OFFSET 17.299992 -0.000006 -0.000002
					CHANNELS 3 Xrotation Yrotation Zrotation
					End Site
					{
						OFFSET 0.000000 0.000000 0.000000
					}
				}
			}
		}
	}
	JOINT Spine
	{
		OFFSET 6.901967 -2.603729 0.000006
		CHANNELS 3 Xrotation Yrotation Zrotation
		JOINT Spine1
		{
			OFFSET 12.588098 -0.000001 -0.000005
			CHANNELS 3 Xrotation Yrotation Zrotation
			JOINT Spine2
			{
				OFFSET 12.343207 0.000001 -0.000003
				CHANNELS 3 Xrotation Yrotation Zrotation
				JOINT Neck
				{
					OFFSET 25.832897 -0.000006 -0.000001
					CHANNELS 3 Xrotation Yrotation Zrotation
					JOINT Head
					{
						OFFSET 11.766602 0.000010 0.000005
						CHANNELS 3 Xrotation Yrotation Zrotation
						End Site
						{
							OFFSET 0.000000 0.000000 0.000000
						}
					}
				}
				JOINT RightShoulder
				{
					OFFSET 19.745901 -1.480368 6.000114
					CHANNELS 3 Xrotation Yrotation Zrotation
					JOINT RightArm
					{
						OFFSET 11.284125 -0.000009 -0.000026
						CHANNELS 3 Xrotation Yrotation Zrotation
						JOINT RightForeArm
						{
							OFFSET 33.000046 0.000005 0.000037
							CHANNELS 3 Xrotation Yrotation Zrotation
							JOINT RightHand
							{
								OFFSET 25.200003 0.000016 -0.000001
								CHANNELS 3 Xrotation Yrotation Zrotation
								End Site
								{
									OFFSET 0.000000 0.000000 0.000000
								}
							}
						}
					}
				}
				JOINT LeftShoulder
				{
					OFFSET 19.746088 -1.480377 -6.000074
					CHANNELS 3 Xrotation Yrotation Zrotation
					JOINT LeftArm
					{
						OFFSET 11.284132 -0.000015 -0.000021
						CHANNELS 3 Xrotation Yrotation Zrotation
						JOINT LeftForeArm
						{
							OFFSET 33.000107 0.000015 0.000018
							CHANNELS 3 Xrotation Yrotation Zrotation
							JOINT LeftHand
							{
								OFFSET 25.199774 0.000138 0.000420
								CHANNELS 3 Xrotation Yrotation Zrotation
								End Site
								{
									OFFSET 0.000000 0.000000 0.000000
								}
							}
						}
					}
				}
			}
		}
	}
}
MOTION
Frames: 15
Frame Time: 0.033333
-162.940704 80.135658 -584.240173 81.991599 -15.485350 166.673951 160.352392 -7.382400 171.517757 -100.646300 4.469404 -6.148766 69.389797 -1.570156 -16.458256 21.454563 0.003106 0.000015 148.812282 -11.007996 -164.969928 -48.377263 -1.380230 6.773441 105.516806 -4.954034 -31.535414 21.454545 -0.003100 -0.000005 7.114553 -0.429721 -1.514602 4.227044 -0.804343 -3.043801 3.909406 -0.822839 -3.038898 4.093412 -11.056549 -19.077492 -40.576344 12.131028 -30.082991 171.088398 -75.686644 7.703881 -0.538088 55.077211 24.786483 -107.525011 -0.716839 3.178287 -10.232981 0.147874 10.304988 -117.660554 79.116205 64.826418 37.086619 -56.443925 -40.579144 -116.565292 -3.125402 -3.251305 -7.123982 5.136349 -17.329397 
-156.279007 80.260696 -584.355774 81.816562 -15.178921 163.208012 149.692256 -8.371799 175.234063 -106.156412 4.224186 -7.460960 72.667755 0.856409 -13.444028 21.454565 0.003104 0.000010 153.159001 -10.645008 -166.721680 -49.630016 -1.172961 5.549944 107.808409 -3.522919 -29.468322 21.454551 -0.003094 -0.000001 7.290272 -0.214447 -0.817366 4.570565 -0.396685 -1.642489 4.252611 -0.406733 -1.640069 3.768040 -12.380882 -18.863647 -41.810190 12.117914 -30.384319 177.372062 -74.432854 1.309697 7.756300 54.590434 28.541252 -104.562410 -1.028792 3.069481 -9.481315 -0.623145 10.677874 -124.617949 80.791002 57.677437 29.857007 -62.994042 -34.431772 -113.015910 -2.587157 -3.138782 -8.359497 5.228882 -22.986691 
-149.020004 81.297043 -583.845520 82.169225 -15.530332 160.064937 140.617626 -7.583890 177.493804 -104.567587 4.213262 -9.965777 75.519243 3.555302 -11.658913 21.454560 0.003108 0.000017 159.763794 -8.867599 -168.300629 -47.291478 -1.109439 3.205707 107.029419 -2.249224 -27.710962 21.454550 -0.003091 -0.000001 7.373339 -0.328862 -0.024124 4.734093 -0.656417 -0.061574 4.415972 -0.656912 -0.057611 4.591857 -13.140761 -19.077070 -42.353091 12.463381 -31.024966 -176.620127 -74.863374 -4.854611 16.001274 53.248978 34.157588 -104.854708 -1.020144 3.081801 -9.460513 -0.584860 9.207693 -127.947611 82.950598 54.179912 26.039763 -66.360253 -31.934703 -113.243799 -2.813030 -3.132905 -9.196995 6.092009 -24.257673 
-141.108002 83.035210 -582.441711 82.661456 -15.761170 157.564937 134.680757 -6.556106 178.368956 -96.832630 4.304149 -12.634419 77.733113 5.723613 -11.713030 21.454558 0.003107 0.000015 167.201952 -6.815003 -170.204776 -42.947509 -0.346235 1.218103 100.964696 -2.391630 -25.560610 21.454555 -0.003090 -0.000000 7.308050 -0.529100 0.774422 4.596207 -1.088215 1.527467 4.278167 -1.079111 1.534007 5.917027 -13.681861 -19.585836 -41.628323 13.382867 -31.974438 -169.179087 -75.690490 -12.481107 22.013884 50.475429 39.669469 -107.473812 -0.734491 3.177269 -10.020582 -0.839317 5.406886 -124.894490 84.706941 57.146376 26.124937 -66.416514 -34.352187 -116.214603 -3.543766 -3.207930 -9.265032 7.398800 -20.321611 
-132.785507 85.039658 -580.312012 83.348375 -16.523891 155.666008 131.978038 -5.093303 177.892332 -83.969717 4.766951 -12.706255 79.435681 5.810069 -12.402982 21.454557 0.003108 0.000018 174.522426 -4.162200 -171.650495 -37.507321 0.055230 -0.783021 90.364079 -2.860756 -21.298338 21.454555 -0.003091 -0.000001 7.121836 -0.875099 1.400241 4.209606 -1.799963 2.768382 3.891724 -1.783353 2.779192 7.106042 -13.987180 -20.169221 -39.851811 14.504571 -32.828625 -163.047489 -76.146207 -18.752430 25.579707 47.376197 43.055422 -110.087404 -0.485805 3.273984 -10.407450 -1.066370 2.664266 -118.334940 85.688521 63.674507 27.109632 -64.235177 -38.319929 -119.423112 -4.057498 -3.305412 -8.678426 7.830421 -15.729801 
-124.468102 86.939323 -577.704712 84.223834 -17.883780 154.124025 132.086160 -2.993502 175.957503 -66.515449 6.171199 -9.899647 76.643431 3.604291 -12.182975 21.454563 0.003108 0.000019 -179.926553 -0.947908 -170.942068 -33.809901 -0.591290 -2.516766 77.101798 -2.053088 -13.526673 21.454557 -0.003093 0.000002 6.912403 -1.347610 1.811991 3.770038 -2.752727 3.580675 3.452198 -2.731200 3.597214 7.886523 -14.137367 -20.692722 -38.158525 15.663768 -33.626022 -161.038034 -76.401963 -20.804203 27.606112 44.986102 43.899490 -111.317720 -0.460316 3.325436 -10.319399 -0.367600 2.871782 -115.671248 85.990244 66.327516 27.329050 -61.197033 -41.141105 -121.465803 -4.179218 -3.379932 -7.697065 7.000038 -14.794494 
-116.425697 88.287048 -574.765930 84.920445 -18.856660 152.755009 134.542296 -1.517196 175.141159 -46.674340 5.939935 -4.834219 73.329970 -0.905717 -13.956028 21.454562 0.003109 0.000018 -177.008054 1.223296 -169.127000 -34.833193 -2.526570 -3.237798 67.407390 0.471136 -5.007980 21.454541 -0.003095 0.000000 6.749163 -1.708821 2.072244 3.424872 -3.477244 4.095609 3.107024 -3.452605 4.116500 8.076675 -14.339799 -20.974350 -37.378722 17.011928 -34.523423 -162.992178 -76.649694 -18.804607 28.258617 43.311261 42.532015 -111.251515 -0.576963 3.330676 -9.940989 1.165890 4.619774 -121.372380 85.773673 60.617280 26.901846 -58.017205 -42.453823 -122.361405 -4.098391 -3.421309 -6.672948 5.844718 -16.707794 
-108.686600 88.351067 -571.730103 85.459368 -18.656879 151.131965 137.985558 -1.285908 177.935881 -30.143326 3.878930 -0.756525 69.321058 -5.069998 -16.026397 21.454558 0.003110 0.000018 -176.750898 1.802504 -169.125114 -41.998048 -4.257810 -1.279985 64.871272 1.050863 0.123448 21.454543 -0.003094 0.000005 6.683650 -1.780565 2.212277 3.286906 -3.622189 4.376032 2.969137 -3.595863 4.397791 7.634853 -14.597043 -20.649981 -37.105850 18.470310 -35.028851 -166.377971 -76.993594 -15.343928 27.859221 41.820012 40.144020 -110.517508 -0.718424 3.308783 -9.478010 2.601763 6.661145 -132.592345 85.297554 49.366002 26.564897 -54.985704 -43.062768 -122.346720 -3.952266 -3.430687 -5.850872 5.073815 -17.750362 
-101.319099 87.204224 -568.809082 86.671515 -17.744717 149.140022 140.655452 -1.661999 -178.590486 -23.277988 2.790362 -0.552620 65.089387 -6.762568 -18.243621 21.454558 0.003108 0.000018 -177.839425 1.875104 -171.476475 -53.761218 -4.589855 2.793592 67.645668 -0.639502 3.437085 21.454545 -0.003095 -0.000002 6.800410 -1.682675 2.068246 3.528423 -3.426686 4.086744 3.210599 -3.402101 4.107328 6.926876 -14.171568 -19.356881 -36.768216 19.367123 -34.095300 -168.348085 -77.669073 -13.331905 26.921816 40.271362 37.916108 -109.703206 -0.861554 3.283425 -9.105644 3.310236 8.843901 -143.018574 85.024483 38.882402 26.700108 -53.094315 -43.521778 -121.312602 -3.837387 -3.397100 -5.146477 4.513645 -16.508567 
-94.156677 85.319504 -566.115784 89.181493 -16.627351 146.765998 142.704686 -1.468706 -178.662586 -28.161114 2.580642 -1.860280 67.329519 -4.953911 -17.062395 21.454558 0.003114 0.000018 179.845301 3.166307 -173.419227 -68.897532 -3.458658 5.326787 70.948938 -3.058421 1.865087 21.454557 -0.003089 -0.000006 7.174340 -1.619480 1.538699 4.294180 -3.294298 3.018056 3.976002 -3.276164 3.037888 6.445465 -12.234693 -17.158470 -36.712024 19.055635 -31.313883 -168.247094 -78.471695 -13.435065 25.263980 38.497125 35.746229 -108.531802 -0.986468 3.241093 -8.840138 3.272841 10.246782 -149.841728 85.312949 31.999925 27.082892 -53.585406 -43.808745 -118.630605 -3.668823 -3.299526 -4.715938 4.221540 -15.546141 
-86.855026 82.826317 -563.722229 92.098380 -14.933789 143.946046 144.569806 -1.978502 178.741106 -42.088428 2.792996 -0.507734 84.218008 -3.826349 -19.743423 21.454555 0.003099 0.000016 176.113067 5.921996 -173.298251 -85.136614 -3.439081 5.404014 72.799810 -3.174698 1.693008 21.454548 -0.003095 0.000001 7.745959 -1.566728 0.831553 5.459137 -3.170625 1.589285 5.140631 -3.161099 1.608411 6.007430 -9.520203 -14.655728 -37.206673 18.136867 -27.833024 -168.730084 -78.764881 -12.943120 22.028702 36.624171 32.588646 -105.580094 -1.126355 3.121241 -8.489785 2.505283 10.347906 -154.027186 85.795789 27.773030 27.913895 -56.501958 -43.975849 -113.783691 -3.052970 -3.139303 -4.899811 4.447535 -18.478874 
-80.250397 80.607559 -561.573914 94.100780 -14.038171 140.746949 146.988335 -2.533994 175.450457 -51.978935 2.856672 0.511177 95.292962 -2.514696 -19.019681 21.454558 0.003108 0.000018 168.726914 8.842408 -173.462981 -99.798107 -4.076584 4.584724 75.415315 -3.455122 -1.192804 21.454558 -0.003090 -0.000001 8.211584 -1.638971 0.173832 6.409269 -3.284928 0.257029 6.090602 -3.283452 0.276883 4.802392 -7.327194 -12.533861 -37.498179 17.522941 -24.965306 -172.887032 -78.517170 -8.708081 17.080208 35.872427 28.010157 -100.507607 -1.417769 2.916290 -7.957766 0.994847 10.615244 -154.670481 85.652239 27.128441 30.160859 -60.276686 -44.525682 -108.464401 -1.966018 -2.985802 -5.839173 4.684078 -25.400966 
-74.627708 80.083969 -558.873230 94.074948 -13.680470 137.744999 150.804512 -3.639609 172.370192 -55.026955 2.856518 0.865861 101.204204 -1.745393 -18.457702 21.454558 0.003106 0.000017 157.171956 8.880294 -174.343925 -109.170896 -4.124583 4.636217 77.134180 -4.141149 -3.663871 21.454568 -0.003089 -0.000003 8.352841 -1.522631 -0.376146 6.706247 -3.020908 -0.839931 6.387700 -3.026061 -0.821660 2.781814 -5.730048 -10.901750 -36.981240 16.942530 -22.550197 179.826764 -78.395641 -1.284474 11.932398 37.962810 22.714293 -95.976807 -1.802086 2.740376 -7.699290 -0.945572 12.154593 -150.061701 84.935035 31.789329 34.121757 -62.338378 -46.419137 -106.286404 -1.327339 -2.935050 -6.965475 4.442014 -31.043275 
-69.710602 81.103531 -555.355408 93.012157 -14.082430 134.568974 155.925733 -4.146807 169.849675 -52.482340 3.046262 0.136990 102.554614 -1.101481 -19.247702 21.454555 0.003099 0.000016 144.507610 6.246202 -174.531182 -110.794602 -3.834576 5.986925 76.332705 -4.913927 -2.903072 21.454550 -0.003096 0.000003 8.176060 -1.271868 -0.882035 6.360758 -2.493459 -1.832813 6.042512 -2.504614 -1.817726 0.679456 -4.127573 -9.279650 -36.013286 15.702366 -19.639003 172.077696 -78.847601 6.591306 8.458791 42.717256 18.561615 -95.166849 -1.910976 2.711683 -8.328430 -2.886913 13.524522 -141.061629 84.430741 40.878819 37.695828 -60.505511 -49.466207 -108.656309 -1.787489 -3.006507 -7.572760 4.645526 -29.843047 
-64.786102 83.100128 -550.918213 91.815064 -14.632227 131.661021 161.900823 -3.859206 168.814587 -47.090333 3.062020 -1.069237 98.764283 -0.998068 -20.063894 21.454562 0.003113 0.000019 134.955235 3.046711 -173.492283 -104.677799 -3.272101 6.527116 75.705953 -5.562893 -3.637511 21.454543 -0.003096 0.000006 7.868308 -0.909094 -1.479678 5.747314 -1.743902 -3.002768 5.429525 -1.762127 -2.992206 -1.123921 -2.344799 -7.355586 -35.020207 13.834884 -15.993953 164.847900 -79.805050 13.900605 6.630406 48.441208 17.298197 -97.943731 -1.625688 2.816159 -9.538069 -4.379859 13.155060 -130.045176 84.363683 51.982292 38.363250 -55.653894 -51.567778 -113.434709 -2.730449 -3.146710 -7.795239 5.920319 -22.714540 
